<?xml version="1.0" standalone="no"?>
<!DOCTYPE svg PUBLIC "-//W3C//DTD SVG 20010904//EN"
 "http://www.w3.org/TR/2001/REC-SVG-20010904/DTD/svg10.dtd">
<svg version="1.0" xmlns="http://www.w3.org/2000/svg"
 width="512.000000pt" height="512.000000pt" viewBox="0 0 512.000000 512.000000"
 preserveAspectRatio="xMidYMid meet">
<metadata>
Created by potrace 1.14, written by Peter Selinger 2001-2017
</metadata>
<g transform="translate(0.000000,512.000000) scale(0.100000,-0.100000)"
fill="#000000" stroke="none">
<path d="M0 2560 l0 -2560 2560 0 2560 0 0 2560 0 2560 -2560 0 -2560 0 0
-2560z m2235 655 c110 -23 208 -77 290 -159 123 -124 173 -262 182 -503 l6
-143 -478 0 -478 0 7 -47 c13 -100 79 -187 175 -232 45 -20 72 -25 136 -26 44
0 101 6 128 14 54 16 134 81 143 117 l6 24 174 0 c113 0 174 -4 174 -10 0 -23
-54 -137 -90 -190 -83 -122 -221 -215 -365 -245 -93 -19 -258 -19 -348 1 -124
27 -211 76 -307 173 -150 151 -207 315 -197 561 3 69 13 152 22 185 66 240
258 429 488 479 83 19 246 19 332 1z m-1007 -178 l2 -177 -42 0 c-90 0 -182
-36 -249 -97 -91 -82 -99 -131 -99 -580 l0 -353 -175 0 -175 0 0 685 0 685
154 0 153 0 7 -62 c4 -35 10 -80 13 -101 l6 -38 33 49 c63 94 151 145 279 162
98 13 90 28 93 -173z m2782 34 l0 -129 -305 -395 c-168 -218 -305 -398 -305
-401 0 -3 144 -6 320 -6 l320 0 0 -155 0 -155 -560 0 -560 0 0 134 0 134 304
394 305 393 -305 3 -304 2 0 155 0 155 545 0 545 0 0 -129z m576 -876 c113
-66 138 -223 51 -321 -44 -51 -96 -74 -164 -74 -106 1 -188 62 -213 158 -37
148 81 283 235 266 28 -3 68 -16 91 -29z"/>
<path d="M1978 2927 c-95 -27 -162 -91 -199 -187 -37 -98 -61 -90 277 -90
l297 0 -6 49 c-11 91 -79 182 -160 216 -53 22 -152 28 -209 12z"/>
</g>
</svg>
